<?xml version="1.0" encoding="utf-8"?>
<svg width="430px" height="430px" viewBox="0 0 430 430" version="1.1" xmlns:xlink="http://www.w3.org/1999/xlink" xmlns="http://www.w3.org/2000/svg">
  <g id="Group">
    <path d="M0 0L430 0L430 430L0 430L0 0Z" id="Rectangle" fill="#245D38" fill-rule="evenodd" stroke="none" />
    <g id="Group" transform="translate(65 57)">
      <path d="M146.951 166.937L142.073 161.443L142.073 159.328L142.683 158.483L142.073 157.637C145.326 160.174 147.765 162.288 149.392 163.979C148.579 165.951 147.765 166.937 146.951 166.937L146.951 166.937ZM139.635 178.352L128.659 160.174C131.098 161.019 133.64 163.132 136.281 166.516C138.923 169.898 140.245 172.433 140.245 174.125C140.245 175.252 140.041 176.661 139.635 178.352L139.635 178.352ZM143.904 170.742L140.245 165.248L139.635 163.979L140.855 163.979L144.512 166.516L146.951 167.361L145.123 168.207L144.512 170.321L143.904 170.742L143.904 170.742ZM171.951 183.003L170.123 182.157L175 179.621C174.188 180.747 173.578 181.735 173.172 182.58L171.951 183.003L171.951 183.003ZM177.439 191.036L176.22 190.613L176.22 187.231L178.049 183.003L178.659 187.231L177.439 191.036L177.439 191.036ZM150.61 188.92L149.392 186.808L149.392 184.694L152.439 184.694L150.61 188.922L150.61 188.92ZM23.1736 212.174C22.7653 211.328 22.5634 210.341 22.5634 209.214L22.5722 209.445L22.6007 209.57C22.7653 209.972 23.4678 207.954 24.708 203.517L25.0021 202.45C24.596 202.167 24.798 201.887 25.6124 201.604L26.2204 201.604L26.8307 202.027L23.1736 212.174L23.1736 212.174ZM19.5142 327.588C19.5142 324.206 20.1244 319.132 21.3427 312.368C22.5632 305.603 23.1734 300.53 23.1734 297.149L22.5632 295.035C20.5305 302.081 19.512 312.933 19.512 327.588L19.5142 327.588ZM265.276 270.563L265.335 271.11C265.934 277.055 266.92 281.929 268.292 285.734L268.292 279.815C268.292 276.362 267.515 273.557 265.959 271.399L265.276 270.563L265.276 270.563ZM16.5443 216.757L15.9165 219.702C12.8368 234.554 10.5495 250.673 9.05681 268.055L8.95583 269.204L9.0107 268.733C9.22802 266.777 9.47606 264.693 9.75704 262.482C13.1353 247.263 15.3436 232.854 16.3819 219.256L16.5443 216.757L16.5443 216.757ZM32.5795 292.143L32.9286 291.653C33.3346 292.779 33.5388 293.907 33.5388 295.034L33.5322 294.987L33.5454 293.385C33.6068 285.338 34.1468 280.365 35.1588 278.464L35.3673 278.124C35.3673 277.843 34.9612 277.701 34.149 277.701L33.9076 277.707L33.8856 277.931C33.3149 283.923 32.8978 288.489 32.6256 291.628L32.5795 292.143L32.5795 292.143ZM293.27 298.468L293.314 298.932C294.328 309.464 296.556 318.311 300 325.473L294.512 304.335L295.12 302.644C294.504 301.527 293.98 300.387 293.549 299.229L293.268 298.468L293.27 298.468ZM285.523 269.554L285.602 270.46C286.008 275.048 286.335 278.731 286.586 281.506L286.586 270.515C286.348 270.351 286.128 270.175 285.927 269.989L285.523 269.554L285.523 269.554ZM280.156 241.847L280.047 241.65C279.853 241.333 279.592 240.949 279.267 240.499L278.657 240.076L276.829 239.653L276.829 229.084L278.049 229.506C279.267 233.452 280.082 236.411 280.486 238.385C280.486 233.029 280.082 229.929 279.267 229.084L280.488 216.401L284.755 260.791L285.117 264.914L285.135 265.218L285.161 265.112C285.229 264.847 285.306 264.564 285.392 264.267L285.67 263.328C286.281 261.354 286.586 259.805 286.586 258.677C286.586 257.832 286.382 256.986 285.976 256.14C288.008 259.523 289.33 266.85 289.938 278.124C290.385 286.392 291.435 292.992 293.083 297.925L293.268 298.468L293.088 296.263C292.886 293.56 292.758 290.752 292.708 287.837L292.682 284.888L292.682 283.62L293.292 282.774L292.074 281.506C294.104 273.052 295.12 267.133 295.12 263.75C295.12 251.349 294.207 232.748 292.376 207.946L292.144 204.746C290.471 181.538 289.633 164.003 289.633 152.141C289.633 150.169 289.33 147.139 288.719 143.052C288.109 138.966 287.804 135.794 287.804 133.54C287.804 128.749 288.21 121.562 289.025 111.979L289.204 109.81C289.896 101.305 290.243 94.8417 290.243 90.419C290.243 88.1634 290.954 84.8517 292.376 80.4837C293.801 76.1158 294.512 72.8025 294.512 70.5485C294.512 55.6107 290.243 43.2099 281.706 33.3462C280.082 33.0631 278.861 32.7831 278.049 32.5L273.169 32.5L273.169 34.1909L270.733 34.1909L270.733 36.3049L266.463 34.1909L264.635 38.4188L262.194 36.728L260.365 37.5726L258.537 37.5726L257.316 38.4188C256.098 37.8557 254.88 37.5726 253.659 37.5726L250 37.9957L250 40.1097L246.951 37.9957C237.196 46.1686 229.878 52.0174 225 55.5407C220.123 59.0639 208.232 73.5072 189.33 98.8733C170.428 124.24 160.367 138.894 159.147 142.841C152.643 131.568 147.359 123.253 143.294 117.898C137.792 106.916 132.307 95.929 126.839 84.9379C119.114 73.3833 113.016 64.7874 108.545 59.1501C103.261 50.4142 99.6019 45.057 97.5693 43.0845L96.9612 43.0845L95.1305 40.549L93.9042 40.1097L89.6348 40.1097L86.5858 41.8006C85.7736 41.2375 84.5553 40.6744 82.9287 40.1097L81.7082 40.1097L81.098 40.5328L80.49 40.1097C78.7646 41.0148 77.134 42.0035 75.6102 43.0684L73.7817 41.379L68.9064 41.379C68.0942 41.0959 67.0779 40.9559 65.8574 40.9559L66.1669 40.9666L66.3184 40.9818C66.7289 41.0761 64.7555 41.4323 60.3982 42.0487L59.1492 42.2237L58.5411 41.8006L56.1024 44.3377L52.4431 43.0684C44.7186 47.861 38.6228 54.3429 34.1514 62.5157C23.5776 82.5262 14.8389 116.63 7.92651 164.824C2.6429 204.281 0 239.794 0 271.359L0 310.254C0.406095 313.073 0.610241 315.185 0.610241 316.596C6.29994 258.819 11.7877 220.489 17.0735 201.604L17.0713 201.618L17.0296 205.927C16.9701 208.873 16.8544 211.816 16.6826 214.758L16.5421 216.761L16.8626 215.289C17.1875 213.828 17.5189 212.382 17.8592 210.947L18.9018 206.681L14.6346 256.99C17.0711 241.771 19.106 228.805 20.7304 218.095L21.9508 217.251L22.5611 217.674L22.5611 215.133L23.1713 213.442C23.1713 217.387 22.5611 225.138 21.3406 236.694L23.1713 236.694L26.8283 218.938L24.9998 216.401L27.4386 213.865C27.8447 214.428 28.0488 216.261 28.0488 219.359C28.4549 219.924 29.0652 220.489 29.8773 221.052C28.6591 216.824 29.4713 211.61 32.3161 205.409C32.3161 211.046 31.5039 219.361 29.8795 230.352C28.2508 241.344 27.4386 249.518 27.4386 254.872C27.4386 258.819 27.8447 262.763 28.6591 266.71L29.8774 262.059L29.8774 260.791C28.6591 259.1 28.0488 257.409 28.0488 255.718C28.4549 254.591 29.0652 253.744 29.8774 253.181L28.6591 252.335C30.6895 243.036 32.1142 235.848 32.9263 230.775L32.81 231.482L32.4873 231.08C32.0966 230.504 31.8529 229.829 31.7564 229.049L31.7059 228.238C31.7059 226.829 33.1305 222.884 35.9753 216.401C35.9753 214.147 35.3651 212.033 34.1468 210.06L35.3651 209.637L38.4141 210.482L33.0273 231.211L33.0712 231.363C33.3566 232.994 33.5124 236.951 33.5322 243.234L33.5322 244.307L33.5541 242.441C33.7319 231.959 35.1566 224.068 37.8236 218.766L38.4141 217.67L39.6346 219.359C37.6953 238.66 35.7927 258.003 33.9337 277.35L33.8635 278.016L33.9096 277.946C33.96 277.825 33.9974 277.688 34.0237 277.537L34.0632 277.048C34.0632 276.344 34.8754 275.709 36.4998 275.146L35.8917 272.186L36.502 271.341L37.11 271.341C37.11 273.595 36.8071 276.907 36.1969 281.276C35.5866 285.644 35.2815 288.956 35.2815 291.21C35.6876 292.338 36.0937 293.325 36.502 294.17C36.0937 295.015 34.9764 301.217 33.1479 312.771C31.3193 324.327 30.404 331.232 30.404 333.486C30.404 335.177 31.0142 336.587 32.2325 337.714C31.0142 335.46 31.0142 331.231 32.2325 325.032C33.0447 318.832 34.6713 315.027 37.11 313.617C37.11 310.517 38.0254 305.795 39.8539 299.454C41.6846 293.112 42.5978 288.393 42.5978 285.293L41.9897 282.332C42.8019 280.36 44.2243 275.146 46.257 266.69C47.4775 259.926 49.306 255.275 51.7448 252.74L50.5265 250.624C52.5569 244.989 53.5733 240.621 53.5733 237.52L53.5733 235.83C57.2325 225.12 59.2652 216.664 59.6713 210.463C63.3305 197.498 66.1753 187.774 68.2102 181.292C72.6794 157.337 76.3387 141.695 79.1857 134.366C80.404 131.548 82.4345 128.871 85.2815 126.334C100.814 145.799 112.602 160.877 120.733 170.742L123.171 171.165C125.61 172.575 130.692 177.789 138.416 186.808C133.131 193.291 130.488 198.081 130.488 201.181L131.098 203.718L135.976 196.532C134.351 201.604 131.098 208.651 126.22 217.67L126.444 217.25L127.366 215.573C133.798 203.905 139.253 195.962 143.733 191.742L144.512 191.036L146.951 193.995L135.976 208.369L146.951 194.839L150.002 194.839L152.439 196.532L151.22 195.262C151.627 194.699 152.237 194.418 153.049 194.418L153.659 193.572L153.857 193.253L153.964 193.413L154.27 193.995L154.27 192.727L154.177 192.73L154.263 192.604C155.857 190.146 157.321 188.68 158.653 188.207L159.147 188.076L160.976 188.076C162.196 185.822 162.602 184.271 162.196 183.426L162.958 183.954L164.025 184.694L164.025 185.54L161.588 192.304L164.635 190.19C166.259 187.09 167.278 185.259 167.684 184.694L168.294 184.271L169.512 185.54C165.759 190.569 162.931 195.013 161.026 198.868L160.613 199.729L161.316 198.551C163.673 194.888 167.273 192.034 172.12 189.995L173.782 189.345L174.39 190.19L173.782 191.036L175.61 190.19C176.016 191.316 176.221 192.585 176.221 193.995C169.512 201.604 164.406 208.897 160.899 215.872L160.837 216.005L164.635 210.482L164.635 211.751C165.041 212.596 165.245 213.16 165.245 213.44C159.34 224.217 154.502 232.851 150.735 239.344L150.441 239.846L152.033 237.163C153.525 234.658 155.014 232.168 156.504 229.695L160.976 222.319C167.48 212.174 173.172 205.551 178.049 202.451L176.221 208.369C186.384 190.613 193.496 181.452 197.561 180.889L198.172 179.198C199.796 177.789 201.221 175.957 202.439 173.703L203.049 173.068C203.411 172.692 207.786 166.694 216.176 155.073L219.512 150.45C227.643 139.177 233.333 132.412 236.586 130.158C238.618 156.651 239.837 176.38 240.243 189.345C241.055 208.509 243.902 235.989 248.782 271.782C252.439 284.183 255.894 293.485 259.147 299.686C262.804 316.594 266.259 327.024 269.512 330.969C262.194 303.631 258.537 269.668 258.537 229.084L267.668 300.043L265.243 270.515L265.276 270.563L265.148 269.087C264.848 265.326 264.681 261.559 264.648 257.792L264.635 255.295C264.635 250.785 265.243 247.825 266.463 246.417C266.463 245.854 265.651 242.894 264.025 237.538L265.243 236.27L267.073 236.693C267.48 237.351 267.842 237.946 268.156 238.479L268.241 238.625L267.976 237.876C267.879 237.541 267.806 237.203 267.756 236.862L267.682 235.847C267.682 234.156 268.292 232.606 269.512 231.198C269.512 236.633 269.736 241.602 270.184 246.105L270.357 247.685L270.292 246.556C270.206 244.881 270.153 243.09 270.131 241.18L270.122 239.229L270.73 232.465C273.169 238.384 274.796 242.894 275.61 245.994L275 249.799C277.033 252.617 277.641 257.409 276.828 264.172L278.657 263.749C279.469 263.467 280.082 263.749 280.488 264.595C279.267 262.623 278.657 260.367 278.657 257.832L278.657 255.295L280.488 253.181L278.657 252.757L278.049 251.49C278.049 250.644 278.251 249.376 278.657 247.685L278.657 243.457L279.267 242.612L279.267 240.92L280.156 241.848L280.156 241.847Z" id="Shape" fill="#FFFFFF" fill-rule="evenodd" stroke="none" />
      <g id="Group" transform="translate(108.87085 0)">
        <path d="M83.7275 62.873L79.6657 64.0558L83.7275 62.873L83.7275 62.873ZM90.0344 99.6119C90.1803 100.946 91.1519 102.108 92.5737 102.648C93.9955 103.188 95.6447 103.021 96.8839 102.213C98.1231 101.405 98.7582 100.082 98.5437 98.7544L90.0344 99.6119L90.0344 99.6119ZM0.169168 77.9678C-0.263827 79.2577 0.148326 80.6488 1.24574 81.6013C2.34315 82.5538 3.95313 82.9179 5.4511 82.5523C6.94907 82.1867 8.09931 81.149 8.45559 79.8417L0.169169 77.9678L0.169168 77.9678ZM29.9726 15.6221L33.4474 17.7806L29.9769 15.6221L29.9726 15.6221ZM31.5794 14.4912L29.6428 11.1943L31.5794 14.4912L31.5794 14.4912ZM55.976 5.48386L54.6049 1.97998L55.976 5.48386L55.976 5.48386ZM94.182 12.5879L95.1846 16.1805L94.182 12.5879L94.182 12.5879ZM104.825 10.1376L103.617 6.58936L104.825 10.1376L104.825 10.1376ZM112.366 12.6138L108.488 14.192L112.362 12.6138L112.366 12.6138ZM112.358 32.9531L115.053 35.825L112.353 32.9531L112.358 32.9531ZM90.2274 46.5659L92.5839 49.6558L90.2274 46.5659L90.2274 46.5659ZM70.6849 6.00911L73.2985 3.07813L70.6849 6.00911L70.6849 6.00911ZM66.2036 66.5396C64.2348 67.6725 63.7034 69.9677 65.0167 71.666C66.33 73.3644 68.9907 73.8227 70.9595 72.6898L66.2036 66.5396L66.2036 66.5396ZM25.7354 30.8055C25.7354 28.7642 23.8171 27.1094 21.4508 27.1094C19.0844 27.1094 17.1662 28.7642 17.1662 30.8055L25.7354 30.8055L25.7354 30.8055ZM79.6657 64.0559C83.449 73.7286 88.4835 88.1359 90.0345 99.6122L98.5437 98.7547C96.8856 86.4541 91.5898 71.4185 87.7893 61.6904L79.6657 64.0559L79.6657 64.0559ZM8.45572 79.8415C22.9077 32.358 31.5626 20.0501 33.4478 17.7844L26.4982 13.46C23.6104 16.9158 14.647 30.388 0.169295 77.9676L8.45572 79.8415L8.45572 79.8415ZM33.5203 17.7847C36.6566 16.4134 47.1454 11.9486 57.3427 8.98802L54.6048 1.97656C43.8034 5.11823 32.8648 9.77898 29.6428 11.1909L33.516 17.781L33.5203 17.7847ZM95.1844 16.1807C98.8237 15.4257 102.441 14.5938 106.033 13.6858L103.617 6.58936C100.969 7.26204 97.3696 8.12323 93.1792 8.99181L95.1844 16.1807L95.1844 16.1807ZM108.488 14.1919C110.09 17.1229 111.239 20.8153 111.406 24.0752C111.586 27.5569 110.63 29.4049 109.658 30.0813L115.052 35.825C119.311 32.8534 120.181 27.8563 119.966 23.7462C119.744 19.4107 118.278 14.7648 116.239 11.0317L108.484 14.1919L108.488 14.1919ZM109.658 30.0815C105.198 33.1973 97.0355 38.2831 87.875 43.4798L92.5838 49.656C101.873 44.3854 110.288 39.1517 115.052 35.8252L109.658 30.0815L109.658 30.0815ZM57.3428 8.98416C60.9119 7.94926 62.4843 7.45029 63.9068 7.39855C64.8195 7.36159 65.9206 7.50943 68.0715 8.93611L73.2987 3.07783C70.0681 0.934109 67.0346 -0.115577 63.5426 0.0100899C60.5648 0.120972 57.4671 1.14848 54.6049 1.9801L57.3471 8.98416L57.3428 8.98416ZM106.033 13.6857C106.6 13.5297 107.208 13.5272 107.777 13.6783C108.163 13.7966 108.368 13.974 108.488 14.1921L116.235 11.0356C113.771 6.53012 107.978 5.48783 103.617 6.59295L106.033 13.6857L106.033 13.6857ZM87.7854 61.6906C86.0466 57.2045 88.0142 52.2702 92.5841 49.6561L87.8754 43.48C80.0494 47.9411 76.6805 56.385 79.6661 64.056L87.7854 61.6906L87.7854 61.6906ZM68.0717 8.93641C71.2337 11.0358 75.7925 13.2091 80.497 14.6875C85.0473 16.1179 90.5187 17.1491 95.1846 16.1807L93.1795 8.99185C91.02 9.44277 87.5238 9.02881 83.4277 7.74257C79.4773 6.50069 75.7026 4.67483 73.2989 3.07813L68.0717 8.93641L68.0717 8.93641ZM33.4522 17.7807C33.4007 17.8399 33.3665 17.8658 33.3665 17.8621C33.4138 17.8336 33.464 17.8089 33.5164 17.7881L29.6431 11.1943C28.3995 11.7212 27.3208 12.4982 26.4983 13.46L33.4479 17.7844L33.4522 17.7807ZM70.9594 72.6897C77.2107 69.0934 85.1372 64.6914 87.7336 55.7247L79.4215 53.9321C77.7334 59.7534 72.8061 62.7399 66.2035 66.5394L70.9594 72.6897L70.9594 72.6897ZM47.1585 52.9819C47.1585 58.0852 42.3628 62.2221 36.447 62.2221L36.447 69.6143C47.0954 69.6143 55.7277 62.1677 55.7277 52.9819L47.1585 52.9819L47.1585 52.9819ZM36.4469 62.2221C30.5311 62.2221 25.7354 58.0852 25.7354 52.9819L17.1662 52.9819C17.1662 62.1677 25.7984 69.6143 36.4469 69.6143L36.4469 62.2221L36.4469 62.2221ZM55.7276 52.9824C55.7276 46.9504 55.252 36.8121 52.2742 28.0709C50.7874 23.7095 48.5808 19.3925 45.2046 16.1104C41.7255 12.7211 37.0167 10.4775 30.9968 10.4775L30.9968 17.8697C34.2403 17.8697 36.7168 18.9896 38.8034 21.0151C40.9971 23.1551 42.7452 26.3078 44.0563 30.1591C46.6742 37.847 47.1626 47.1167 47.1626 52.9824L55.7318 52.9824L55.7276 52.9824ZM25.7354 52.9821L25.7354 30.8057L17.1662 30.8057L17.1662 52.9821L25.7354 52.9821L25.7354 52.9821Z" id="Shape" fill="#FFFFFF" fill-rule="evenodd" stroke="none" />
      </g>
    </g>
  </g>
</svg>