<?xml version="1.0" encoding="utf-8"?>
<svg width="430px" height="430px" viewBox="0 0 430 430" version="1.1" xmlns:xlink="http://www.w3.org/1999/xlink" xmlns="http://www.w3.org/2000/svg">
  <g id="Group">
    <path d="M0 215C0 96.2588 96.2588 0 215 0C333.741 0 430 96.2588 430 215C430 333.741 333.741 430 215 430C96.2588 430 0 333.741 0 215Z" id="Oval" fill="#245D38" fill-rule="evenodd" stroke="none" />
    <path d="M212.459 224.267L208.394 218.984L208.394 216.95L208.903 216.138L208.394 215.324C211.105 217.763 213.138 219.796 214.493 221.422C213.816 223.319 213.138 224.267 212.459 224.267L212.459 224.267ZM206.362 235.242L197.216 217.763C199.248 218.576 201.366 220.608 203.567 223.861C205.769 227.113 206.871 229.551 206.871 231.178C206.871 232.261 206.701 233.616 206.362 235.242L206.362 235.242ZM209.92 227.925L206.871 222.642L206.362 221.422L207.379 221.422L210.427 223.861L212.459 224.674L210.935 225.487L210.427 227.52L209.92 227.925L209.92 227.925ZM233.293 239.715L231.769 238.901L235.833 236.463C235.157 237.546 234.648 238.496 234.31 239.308L233.293 239.715L233.293 239.715ZM237.866 247.438L236.85 247.031L236.85 243.78L238.374 239.714L238.883 243.78L237.866 247.438L237.866 247.438ZM215.509 245.404L214.493 243.373L214.493 241.34L217.032 241.34L215.509 245.406L215.509 245.404ZM109.311 267.763C108.971 266.95 108.803 266.002 108.803 264.917L108.81 265.14L108.834 265.26C108.971 265.646 109.556 263.705 110.59 259.44L110.835 258.414C110.497 258.142 110.665 257.872 111.344 257.6L111.85 257.6L112.359 258.007L109.311 267.763L109.311 267.763ZM106.262 378.738C106.262 375.486 106.77 370.607 107.786 364.104C108.803 357.599 109.311 352.721 109.311 349.47L108.803 347.437C107.109 354.213 106.26 364.647 106.26 378.738L106.262 378.738ZM311.063 323.907L311.113 324.432C311.612 330.148 312.433 334.835 313.577 338.494L313.577 332.803C313.577 329.482 312.929 326.785 311.632 324.71L311.063 323.907L311.063 323.907ZM103.787 272.17L103.264 275.002C100.697 289.283 98.7914 304.782 97.5475 321.495L97.4634 322.6L97.5091 322.147C97.6902 320.266 97.8969 318.263 98.1311 316.136C100.946 301.502 102.786 287.648 103.652 274.573L103.787 272.17L103.787 272.17ZM117.15 344.657L117.441 344.185C117.779 345.268 117.949 346.353 117.949 347.437L117.944 347.392L117.955 345.851C118.006 338.114 118.456 333.331 119.299 331.504L119.473 331.177C119.473 330.907 119.134 330.771 118.458 330.771L118.256 330.776L118.238 330.991C117.762 336.753 117.415 341.143 117.188 344.162L117.15 344.657L117.15 344.657ZM334.391 350.738L334.428 351.185C335.273 361.311 337.13 369.818 340 376.705L335.427 356.38L335.934 354.754C335.42 353.68 334.983 352.583 334.624 351.47L334.39 350.738L334.391 350.738ZM327.936 322.937L328.002 323.807C328.34 328.219 328.613 331.761 328.821 334.429L328.821 323.86C328.624 323.702 328.44 323.534 328.273 323.355L327.936 322.937L327.936 322.937ZM323.464 296.295L323.372 296.105C323.211 295.801 322.993 295.432 322.723 294.999L322.214 294.592L320.69 294.185L320.69 284.023L321.707 284.429C322.723 288.223 323.401 291.068 323.738 292.966C323.738 287.816 323.401 284.836 322.723 284.023L323.74 271.827L327.296 314.51L327.598 318.475L327.612 318.767L327.634 318.665C327.691 318.41 327.755 318.138 327.826 317.853L328.059 316.95C328.567 315.052 328.821 313.562 328.821 312.478C328.821 311.666 328.651 310.852 328.313 310.038C330.007 313.291 331.108 320.336 331.615 331.177C331.988 339.126 332.862 345.473 334.236 350.216L334.39 350.738L334.24 348.618C334.071 346.019 333.965 343.319 333.923 340.517L333.901 337.681L333.901 336.461L334.41 335.648L333.395 334.429C335.087 326.3 335.934 320.608 335.934 317.355C335.934 305.431 335.173 287.546 333.647 263.698L333.453 260.621C332.059 238.305 331.36 221.445 331.36 210.04C331.36 208.143 331.108 205.229 330.599 201.3C330.091 197.371 329.837 194.321 329.837 192.154C329.837 187.547 330.175 180.637 330.854 171.422L331.004 169.336C331.58 161.159 331.869 154.944 331.869 150.691C331.869 148.522 332.462 145.338 333.647 141.138C334.834 136.938 335.427 133.752 335.427 131.585C335.427 117.222 331.869 105.298 324.755 95.8137C323.401 95.5415 322.384 95.2722 321.707 95L317.641 95L317.641 96.6258L315.611 96.6258L315.611 98.6585L312.053 96.6258L310.529 100.691L308.495 99.0653L306.971 99.8775L305.447 99.8775L304.43 100.691C303.415 100.15 302.4 99.8775 301.383 99.8775L298.333 100.284L298.333 102.317L295.793 100.284C287.663 108.143 281.565 113.767 277.5 117.154C273.435 120.542 263.526 134.43 247.775 158.82C232.023 183.211 223.64 197.302 222.622 201.097C217.202 190.257 212.799 182.263 209.412 177.113C204.826 166.554 200.256 155.989 195.699 145.421C189.262 134.311 184.18 126.046 180.454 120.625C176.051 112.225 173.002 107.074 171.308 105.177L170.801 105.177L169.275 102.739L168.254 102.317L164.696 102.317L162.155 103.943C161.478 103.401 160.463 102.86 159.107 102.317L158.09 102.317L157.582 102.724L157.075 102.317C155.637 103.187 154.278 104.138 153.009 105.162L151.485 103.537L147.422 103.537C146.745 103.265 145.898 103.131 144.881 103.131L145.139 103.141L145.265 103.156C145.607 103.246 143.963 103.589 140.332 104.181L139.291 104.35L138.784 103.943L136.752 106.382L133.703 105.162C127.265 109.77 122.186 116.003 118.459 123.861C109.648 143.102 102.366 175.894 96.6054 222.234C92.2024 260.174 90 294.321 90 324.672L90 362.071C90.3384 364.781 90.5085 366.812 90.5085 368.169C95.25 312.614 99.8231 275.758 104.228 257.6L104.226 257.613L104.191 261.756C104.142 264.589 104.045 267.419 103.902 270.248L103.785 272.174L104.052 270.758C104.323 269.354 104.599 267.963 104.883 266.583L105.752 262.481L102.195 310.856C104.226 296.222 105.922 283.755 107.275 273.457L108.292 272.645L108.801 273.052L108.801 270.608L109.309 268.982C109.309 272.776 108.801 280.229 107.784 291.34L109.309 291.34L112.357 274.267L110.833 271.827L112.865 269.389C113.204 269.931 113.374 271.693 113.374 274.672C113.712 275.215 114.221 275.758 114.898 276.299C113.883 272.234 114.559 267.221 116.93 261.259C116.93 266.679 116.253 274.674 114.9 285.242C113.542 295.811 112.865 303.671 112.865 308.819C112.865 312.614 113.204 316.407 113.883 320.202L114.898 315.729L114.898 314.51C113.883 312.885 113.374 311.259 113.374 309.633C113.712 308.549 114.221 307.735 114.898 307.193L113.883 306.38C115.575 297.438 116.762 290.527 117.439 285.649L117.342 286.328L117.073 285.942C116.747 285.389 116.544 284.739 116.464 283.99L116.422 283.21C116.422 281.855 117.609 278.061 119.979 271.827C119.979 269.66 119.471 267.627 118.456 265.731L119.471 265.324L122.012 266.136L117.523 286.068L117.559 286.214C117.797 287.783 117.927 291.588 117.943 297.629L117.943 298.66L117.962 296.866C118.11 286.788 119.297 279.2 121.52 274.102L122.012 273.048L123.029 274.672C121.413 293.231 119.827 311.83 118.278 330.432L118.22 331.073L118.258 331.006C118.3 330.889 118.331 330.757 118.353 330.612L118.386 330.142C118.386 329.465 119.063 328.855 120.416 328.313L119.91 325.467L120.418 324.655L120.925 324.655C120.925 326.822 120.673 330.006 120.164 334.208C119.656 338.408 119.401 341.592 119.401 343.759C119.74 344.844 120.078 345.794 120.418 346.606C120.078 347.418 119.147 353.381 117.623 364.491C116.099 375.603 115.337 382.242 115.337 384.41C115.337 386.036 115.845 387.391 116.86 388.475C115.845 386.308 115.845 382.241 116.86 376.281C117.537 370.319 118.893 366.66 120.925 365.305C120.925 362.324 121.688 357.783 123.212 351.687C124.737 345.589 125.498 341.051 125.498 338.07L124.991 335.223C125.668 333.327 126.854 328.313 128.548 320.182C129.565 313.679 131.088 309.207 133.121 306.769L132.105 304.735C133.797 299.316 134.644 295.116 134.644 292.135L134.644 290.509C137.694 280.211 139.388 272.08 139.726 266.119C142.775 253.652 145.146 244.302 146.842 238.069C150.566 215.036 153.616 199.995 155.988 192.948C157.003 190.238 158.695 187.664 161.068 185.225C174.012 203.942 183.835 218.439 190.611 227.925L192.643 228.332C194.675 229.687 198.91 234.701 205.347 243.373C200.942 249.607 198.74 254.212 198.74 257.193L199.248 259.633L203.313 252.723C201.959 257.6 199.248 264.376 195.184 273.048L195.37 272.644L196.139 271.031C201.498 259.813 206.044 252.175 209.777 248.117L210.427 247.438L212.459 250.283L203.313 264.105L212.459 251.095L215.002 251.095L217.032 252.723L216.017 251.502C216.355 250.961 216.864 250.69 217.541 250.69L218.049 249.876L218.214 249.57L218.304 249.724L218.558 250.283L218.558 249.064L218.481 249.067L218.552 248.946C219.88 246.582 221.101 245.173 222.211 244.718L222.622 244.592L224.146 244.592C225.163 242.425 225.502 240.933 225.163 240.121L225.798 240.629L226.687 241.34L226.687 242.154L224.657 248.657L227.196 246.625C228.549 243.644 229.398 241.883 229.736 241.34L230.245 240.933L231.26 242.154C228.132 246.989 225.776 251.262 224.188 254.969L223.844 255.797L224.43 254.665C226.394 251.142 229.394 248.398 233.433 246.437L234.818 245.812L235.325 246.625L234.818 247.438L236.342 246.625C236.68 247.708 236.85 248.928 236.85 250.283C231.26 257.6 227.005 264.613 224.082 271.32L224.031 271.447L227.196 266.136L227.196 267.357C227.534 268.169 227.704 268.712 227.704 268.981C222.783 279.343 218.752 287.645 215.613 293.888L215.368 294.371L216.694 291.791C217.938 289.382 219.178 286.988 220.42 284.61L224.146 277.519C229.566 267.763 234.31 261.395 238.374 258.414L236.85 264.105C245.32 247.031 251.247 238.223 254.634 237.682L255.143 236.056C256.497 234.701 257.684 232.939 258.699 230.772L259.208 230.161C259.509 229.8 263.155 224.033 270.146 212.858L272.927 208.414C279.702 197.574 284.444 191.069 287.155 188.902C288.849 214.376 289.864 233.346 290.202 245.812C290.879 264.24 293.252 290.663 297.318 325.079C300.366 337.003 303.245 345.947 305.956 351.909C309.003 368.168 311.883 378.196 314.594 381.989C308.495 355.702 305.447 323.046 305.447 284.023L313.057 352.253L311.036 323.86L311.063 323.907L310.957 322.487C310.706 318.87 310.567 315.249 310.54 311.627L310.529 309.225C310.529 304.889 311.036 302.043 312.053 300.689C312.053 300.148 311.376 297.302 310.02 292.152L311.036 290.933L312.561 291.34C312.9 291.972 313.201 292.544 313.463 293.056L313.534 293.197L313.313 292.477C313.232 292.154 313.171 291.829 313.13 291.502L313.068 290.526C313.068 288.9 313.576 287.409 314.594 286.055C314.594 291.281 314.78 296.059 315.153 300.389L315.298 301.908L315.243 300.823C315.172 299.213 315.128 297.49 315.109 295.654L315.102 293.778L315.609 287.274C317.641 292.966 318.996 297.302 319.675 300.283L319.167 303.941C320.86 306.651 321.367 311.258 320.69 317.761L322.214 317.355C322.891 317.084 323.401 317.355 323.74 318.168C322.723 316.272 322.214 314.103 322.214 311.665L322.214 309.225L323.74 307.193L322.214 306.786L321.707 305.567C321.707 304.753 321.876 303.534 322.214 301.908L322.214 297.843L322.723 297.031L322.723 295.404L323.464 296.296L323.464 296.295Z" id="Shape" fill="#FFFFFF" fill-rule="evenodd" stroke="none" />
    <g id="Group" transform="translate(181 63)">
      <path d="M69.775 60.454L66.39 61.5913L69.775 60.454L69.775 60.454ZM75.0309 95.7794C75.1524 97.0622 75.9621 98.179 77.147 98.6982C78.3318 99.2174 79.7062 99.0576 80.7389 98.2806C81.7716 97.5036 82.3009 96.231 82.1221 94.9549L75.0309 95.7794L75.0309 95.7794ZM0.140978 74.9679C-0.219862 76.2082 0.123609 77.5457 1.03815 78.4616C1.95268 79.3775 3.29437 79.7275 4.54271 79.376C5.79106 79.0245 6.74962 78.0267 7.04653 76.7697L0.140978 74.9679L0.140978 74.9679ZM24.9781 15.0212L27.8739 17.0967L24.9817 15.0212L24.9781 15.0212ZM26.317 13.9339L24.7031 10.7638L26.317 13.9339L26.317 13.9339ZM46.6481 5.27285L45.5055 1.90377L46.6481 5.27285L46.6481 5.27285ZM78.4873 12.1035L79.3228 15.5578L78.4873 12.1035L78.4873 12.1035ZM87.3565 9.74736L86.3496 6.33564L87.3565 9.74736L87.3565 9.74736ZM93.6408 12.1284L90.4094 13.6459L93.6372 12.1284L93.6408 12.1284ZM93.6338 31.6854L95.8798 34.4468L93.6303 31.6854L93.6338 31.6854ZM75.1916 44.7744L77.1554 47.7454L75.1916 44.7744L75.1916 44.7744ZM58.9061 5.77767L61.0841 2.95945L58.9061 5.77767L58.9061 5.77767ZM55.1712 63.9795C53.5305 65.0689 53.0877 67.2758 54.1821 68.9088C55.2766 70.5418 57.4939 70.9825 59.1346 69.8932L55.1712 63.9795L55.1712 63.9795ZM21.4469 29.6206C21.4469 27.6578 19.8483 26.0667 17.8763 26.0667C15.9043 26.0667 14.3057 27.6578 14.3057 29.6206L21.4469 29.6206L21.4469 29.6206ZM66.39 61.5912C69.5429 70.8917 73.7383 84.7447 75.0309 95.7794L82.1221 94.9549C80.7403 83.1277 76.327 68.6705 73.1599 59.3167L66.39 61.5912L66.39 61.5912ZM7.04656 76.7698C19.0902 31.1132 26.3028 19.2788 27.8739 17.1002L22.0824 12.9422C19.6758 16.2651 12.2061 29.219 0.141016 74.968L7.04657 76.7698L7.04656 76.7698ZM27.9345 17.1004C30.5482 15.7819 39.289 11.4888 47.7871 8.64216L45.5055 1.90046C36.504 4.92125 27.3882 9.40269 24.7031 10.7603L27.931 17.0968L27.9345 17.1004ZM79.3226 15.5579C82.3554 14.832 85.3699 14.0321 88.3634 13.1591L86.3496 6.33564C84.1429 6.98244 81.1436 7.8105 77.6516 8.64566L79.3226 15.5579L79.3226 15.5579ZM90.4094 13.6458C91.7448 16.4641 92.7018 20.0144 92.841 23.1489C92.991 26.4967 92.1947 28.2736 91.3842 28.924L95.8796 34.4467C99.4288 31.5894 100.154 26.7845 99.9751 22.8326C99.7894 18.6639 98.5683 14.1967 96.8687 10.6073L90.4059 13.6458L90.4094 13.6458ZM91.3842 28.9242C87.6672 31.9201 80.8652 36.8102 73.2313 41.807L77.1553 47.7455C84.8964 42.6777 91.9091 37.6454 95.8796 34.4469L91.3842 28.9242L91.3842 28.9242ZM47.7871 8.63851C50.7614 7.64342 52.0718 7.16365 53.2573 7.1139C54.0178 7.07836 54.9354 7.22051 56.7279 8.59231L61.084 2.95942C58.3918 0.89817 55.8638 -0.111131 52.9538 0.0097017C50.4722 0.116318 47.8906 1.1043 45.5055 1.90392L47.7907 8.63851L47.7871 8.63851ZM88.3634 13.159C88.8357 13.009 89.3429 13.0065 89.8167 13.1519C90.138 13.2656 90.3094 13.4362 90.4094 13.6459L96.865 10.6109C94.8119 6.27871 89.9845 5.27652 86.3496 6.33913L88.3634 13.159L88.3634 13.159ZM73.1563 59.3169C71.7073 55.0034 73.347 50.2589 77.1554 47.7455L73.2313 41.8069C66.7094 46.0964 63.9019 54.2155 66.39 61.5914L73.1563 59.3169L73.1563 59.3169ZM56.7279 8.59234C59.363 10.6109 63.1622 12.7006 67.0827 14.1222C70.8747 15.4975 75.4343 16.4891 79.3227 15.5579L77.6517 8.64565C75.8521 9.07922 72.9385 8.68119 69.525 7.44444C66.2329 6.25034 63.0872 4.49473 61.0841 2.95945L56.7279 8.59234L56.7279 8.59234ZM27.8775 17.0968C27.8347 17.1537 27.8061 17.1785 27.8061 17.175C27.8456 17.1477 27.8874 17.1239 27.9311 17.1039L24.7032 10.7638C23.6668 11.2704 22.7679 12.0175 22.0824 12.9423L27.8739 17.1004L27.8775 17.0968ZM59.1345 69.8931C64.344 66.4352 70.9496 62.2025 73.1134 53.5808L66.1864 51.8572C64.7796 57.4545 60.6734 60.326 55.1711 63.9794L59.1345 69.8931L59.1345 69.8931ZM39.2998 50.9438C39.2998 55.8506 35.3032 59.8285 30.3732 59.8285L30.3732 66.9362C39.2472 66.9362 46.441 59.7761 46.441 50.9438L39.2998 50.9438L39.2998 50.9438ZM30.3734 59.8285C25.4434 59.8285 21.4469 55.8506 21.4469 50.9438L14.3057 50.9438C14.3057 59.7761 21.4994 66.9362 30.3734 66.9362L30.3734 59.8285L30.3734 59.8285ZM46.441 50.9439C46.441 45.144 46.0446 35.3957 43.5631 26.9908C42.3241 22.7972 40.4852 18.6463 37.6716 15.4905C34.7722 12.2316 30.8482 10.0744 25.8314 10.0744L25.8314 17.1821C28.5344 17.1821 30.5982 18.2589 32.3371 20.2065C34.1652 22.2642 35.622 25.2956 36.7146 28.9988C38.8963 36.3908 39.3033 45.3039 39.3033 50.9439L46.4446 50.9439L46.441 50.9439ZM21.4469 50.9437L21.4469 29.6204L14.3057 29.6204L14.3057 50.9437L21.4469 50.9437L21.4469 50.9437Z" id="Shape" fill="#FFFFFF" fill-rule="evenodd" stroke="none" />
    </g>
  </g>
</svg>